<svg xmlns="http://www.w3.org/2000/svg" viewBox="0 0 97 91.81"><title>advance portfolio</title><g id="Layer_2" data-name="Layer 2"><g id="Layer_1-2" data-name="Layer 1"><path d="M33.15,50.68a1.58,1.58,0,0,0,.36.58l5.4,5.41L34.5,62.94a6.3,6.3,0,0,0,5,10.22,6.26,6.26,0,0,0,3.84-1.31l6.33-4.46,4.86,4.87A6.75,6.75,0,0,0,64,62.72l-5.17-5.17.44-1.66a8.08,8.08,0,0,0,5-2.13,5.51,5.51,0,0,0,.42-.42c2.72-2.72,2.86-11.45,2.86-13.17a1.5,1.5,0,0,0-1.5-1.5c-1.71,0-10.41.13-13.14,2.83A8,8,0,0,0,50.41,47l-1.67.44L43,41.75a1.48,1.48,0,0,0-.58-.37l-11.11-3.7a1.49,1.49,0,0,0-1.53.36,1.48,1.48,0,0,0-.37,1.53Zm19.79,2.65a8.16,8.16,0,0,0,3.37,2.15l-1.18,4.37L41.51,69.44a3.35,3.35,0,0,1-4.41-.24,3.39,3.39,0,0,1-.2-4.47l9.55-13.56L50.81,50a8.07,8.07,0,0,0,1.73,2.93c.11.12.22.24.33.34h0ZM55,43.69l0,0c1.15-1.15,5.63-1.8,9.52-1.95-.15,3.88-.81,8.38-2,9.57l-.29.29A5,5,0,0,1,58,52.79l-.12,0-.32-.07-.16-.06-.12,0a5.53,5.53,0,0,1-2.06-1.29l-.13-.11a6.4,6.4,0,0,1-.53-.62l-.12-.16a5.28,5.28,0,0,1-.8-1.63,4.86,4.86,0,0,1-.15-.72A5.1,5.1,0,0,1,55,43.69ZM57.3,62a1.48,1.48,0,0,0,.59-.84L58,60.9l3.94,3.94a3.74,3.74,0,1,1-5.29,5.3l-4.5-4.5ZM54.7,43.32Zm-9.55,5.09a1.52,1.52,0,0,0-.84.58l-3.65,5.19L35.89,49.4l-2.65-7.93,7.92,2.65,4.24,4.22Z"/><path d="M97,17.45A3.5,3.5,0,0,0,93.5,14H72.25V5a5,5,0,0,0-5-5H29.73a5,5,0,0,0-5,5v9H3.5A3.5,3.5,0,0,0,0,17.45V88.31a3.5,3.5,0,0,0,3.5,3.5h90a3.5,3.5,0,0,0,3.5-3.5ZM29.73,3H67.27a2,2,0,0,1,2,2v9H27.75V5A2,2,0,0,1,29.73,3ZM3,17.45a.5.5,0,0,1,.5-.5h90a.5.5,0,0,1,.5.5V88.31a.5.5,0,0,1-.5.5H3.5a.5.5,0,0,1-.5-.5Z"/></g></g></svg>